<?xml version="1.0" encoding="UTF-8"?>
<!DOCTYPE svg PUBLIC "-//W3C//DTD SVG 1.1//EN" "http://www.w3.org/Graphics/SVG/1.1/DTD/svg11.dtd">
<svg version="1.1" xmlns="http://www.w3.org/2000/svg" xmlns:xlink="http://www.w3.org/1999/xlink" x="0" y="0" width="400" height="400" viewBox="0, 0, 400, 400">
  <g id="Layer_1">
    <path d="M92.563,72 L307.437,72 C318.793,72 328,81.108 328,92.344 L328,307.656 C328,318.892 318.793,328 307.437,328 L92.563,328 C81.207,328 72,318.892 72,307.656 L72,92.344 C72,81.108 81.207,72 92.563,72 z" fill-opacity="0" stroke="#000000" stroke-width="5"/>
    <path d="M119.161,157.828 L109.407,119.063 L109.407,161.065 Q109.407,164.551 107.851,166.294 Q106.294,168.038 103.721,168.038 Q101.231,168.038 99.654,166.315 Q98.077,164.593 98.077,161.065 L98.077,112.92 Q98.077,108.936 100.152,107.546 Q102.227,106.155 105.755,106.155 L109.573,106.155 Q113.018,106.155 114.574,106.778 Q116.131,107.4 116.878,109.019 Q117.625,110.638 118.58,114.29 L127.42,147.618 L136.26,114.29 Q137.215,110.638 137.962,109.019 Q138.709,107.4 140.265,106.778 Q141.822,106.155 145.267,106.155 L149.085,106.155 Q152.613,106.155 154.688,107.546 Q156.763,108.936 156.763,112.92 L156.763,161.065 Q156.763,164.551 155.207,166.294 Q153.65,168.038 151.036,168.038 Q148.587,168.038 147.01,166.294 Q145.433,164.551 145.433,161.065 L145.433,119.063 L135.679,157.828 Q134.725,161.604 134.123,163.368 Q133.521,165.132 131.902,166.585 Q130.284,168.038 127.42,168.038 Q125.262,168.038 123.768,167.104 Q122.273,166.17 121.443,164.717 Q120.613,163.265 120.136,161.501 Q119.659,159.737 119.161,157.828 z" fill="#000000"/>
    <path d="M169.92,160.525 L169.92,112.588 Q169.92,108.853 171.622,106.985 Q173.323,105.118 176.021,105.118 Q178.802,105.118 180.524,106.965 Q182.247,108.812 182.247,112.588 L182.247,160.525 Q182.247,164.302 180.524,166.17 Q178.802,168.038 176.021,168.038 Q173.365,168.038 171.642,166.149 Q169.92,164.261 169.92,160.525 z" fill="#000000"/>
    <path d="M208.435,112.588 L208.435,133.921 L232.632,108.687 Q234.375,106.861 235.6,105.989 Q236.824,105.118 238.858,105.118 Q241.514,105.118 243.153,106.674 Q244.793,108.23 244.793,110.472 Q244.793,113.169 242.012,115.826 L227.029,130.02 L244.295,154.756 Q246.121,157.33 247.034,159.26 Q247.947,161.189 247.947,163.016 Q247.947,165.049 246.349,166.543 Q244.751,168.038 242.012,168.038 Q239.439,168.038 237.82,166.938 Q236.202,165.838 235.081,164.012 Q233.96,162.186 233.089,160.691 L218.521,138.279 L208.435,147.95 L208.435,160.525 Q208.435,164.344 206.692,166.191 Q204.949,168.038 202.21,168.038 Q200.633,168.038 199.18,167.208 Q197.727,166.377 196.939,164.966 Q196.358,163.804 196.233,162.269 Q196.109,160.733 196.109,157.828 L196.109,112.588 Q196.109,108.853 197.748,106.985 Q199.388,105.118 202.21,105.118 Q204.991,105.118 206.713,106.965 Q208.435,108.812 208.435,112.588 z" fill="#000000"/>
    <path d="M299.038,115.66 L271.272,115.66 L271.272,130.601 L296.839,130.601 Q299.661,130.601 301.051,131.867 Q302.442,133.133 302.442,135.208 Q302.442,137.283 301.072,138.591 Q299.703,139.898 296.839,139.898 L271.272,139.898 L271.272,157.205 L299.993,157.205 Q302.898,157.205 304.372,158.554 Q305.845,159.903 305.845,162.144 Q305.845,164.302 304.372,165.651 Q302.898,167 299.993,167 L266.499,167 Q262.474,167 260.71,165.215 Q258.946,163.431 258.946,159.446 L258.946,113.709 Q258.946,111.053 259.734,109.372 Q260.523,107.691 262.204,106.923 Q263.885,106.155 266.499,106.155 L299.038,106.155 Q301.985,106.155 303.417,107.463 Q304.849,108.77 304.849,110.887 Q304.849,113.045 303.417,114.352 Q301.985,115.66 299.038,115.66 z" fill="#000000"/>
    <path d="M97.891,224.115 L97.891,195.353 Q97.891,193.112 98.912,191.991 Q99.933,190.871 101.551,190.871 Q103.22,190.871 104.253,191.979 Q105.287,193.087 105.287,195.353 L105.287,224.115 Q105.287,226.381 104.253,227.502 Q103.22,228.623 101.551,228.623 Q99.958,228.623 98.924,227.49 Q97.891,226.356 97.891,224.115 z" fill="#000000"/>
    <path d="M137.261,197.594 L129.193,197.594 L129.193,224.115 Q129.193,226.406 128.172,227.514 Q127.151,228.623 125.532,228.623 Q123.889,228.623 122.855,227.502 Q121.822,226.381 121.822,224.115 L121.822,197.594 L113.754,197.594 Q111.861,197.594 110.94,196.76 Q110.018,195.926 110.018,194.556 Q110.018,193.137 110.977,192.315 Q111.936,191.493 113.754,191.493 L137.261,191.493 Q139.179,191.493 140.113,192.34 Q141.046,193.187 141.046,194.556 Q141.046,195.926 140.1,196.76 Q139.154,197.594 137.261,197.594 z" fill="#000000"/>
    <path d="M162.761,191.493 L172.399,191.493 Q176.159,191.493 178.848,192.19 Q181.538,192.888 183.729,194.805 Q189.432,199.686 189.432,209.647 Q189.432,212.934 188.859,215.648 Q188.286,218.363 187.091,220.542 Q185.896,222.721 184.028,224.439 Q182.559,225.759 180.816,226.556 Q179.072,227.353 177.068,227.676 Q175.063,228 172.548,228 L162.911,228 Q160.894,228 159.873,227.39 Q158.852,226.78 158.54,225.672 Q158.229,224.563 158.229,222.795 L158.229,196.025 Q158.229,193.635 159.3,192.564 Q160.371,191.493 162.761,191.493 z M165.625,197.345 L165.625,222.123 L171.228,222.123 Q173.071,222.123 174.117,222.023 Q175.163,221.924 176.283,221.525 Q177.404,221.127 178.226,220.405 Q181.936,217.267 181.936,209.597 Q181.936,204.193 180.305,201.504 Q178.674,198.814 176.283,198.08 Q173.893,197.345 170.506,197.345 z" fill="#000000"/>
    <path d="M211.993,190.871 Q217.671,190.871 221.743,193.174 Q225.814,195.478 227.906,199.723 Q229.998,203.969 229.998,209.697 Q229.998,213.93 228.852,217.392 Q227.707,220.853 225.416,223.393 Q223.125,225.933 219.788,227.278 Q216.451,228.623 212.143,228.623 Q207.859,228.623 204.473,227.24 Q201.086,225.858 198.82,223.343 Q196.554,220.828 195.396,217.292 Q194.238,213.756 194.238,209.647 Q194.238,205.438 195.446,201.927 Q196.653,198.416 198.944,195.951 Q201.235,193.485 204.523,192.178 Q207.81,190.871 211.993,190.871 z M222.502,209.647 Q222.502,205.638 221.207,202.699 Q219.912,199.761 217.509,198.254 Q215.106,196.748 211.993,196.748 Q209.777,196.748 207.897,197.582 Q206.017,198.416 204.66,200.01 Q203.302,201.604 202.518,204.081 Q201.733,206.559 201.733,209.647 Q201.733,212.76 202.518,215.275 Q203.302,217.79 204.734,219.446 Q206.166,221.102 208.021,221.924 Q209.877,222.746 212.093,222.746 Q214.932,222.746 217.31,221.326 Q219.688,219.907 221.095,216.943 Q222.502,213.98 222.502,209.647 z" fill="#000000"/>
    <path d="M245.96,195.303 L260.179,216.819 L260.179,195.104 Q260.179,192.987 261.088,191.929 Q261.997,190.871 263.541,190.871 Q265.135,190.871 266.056,191.929 Q266.978,192.987 266.978,195.104 L266.978,223.816 Q266.978,228.623 262.993,228.623 Q261.997,228.623 261.2,228.336 Q260.403,228.05 259.706,227.427 Q259.009,226.805 258.411,225.97 Q257.814,225.136 257.216,224.265 L243.345,202.998 L243.345,224.389 Q243.345,226.481 242.374,227.552 Q241.403,228.623 239.884,228.623 Q238.315,228.623 237.369,227.539 Q236.422,226.456 236.422,224.389 L236.422,196.225 Q236.422,194.432 236.821,193.411 Q237.294,192.29 238.39,191.58 Q239.485,190.871 240.755,190.871 Q241.752,190.871 242.461,191.194 Q243.171,191.518 243.706,192.066 Q244.242,192.614 244.802,193.485 Q245.362,194.357 245.96,195.303 z" fill="#000000"/>
    <path d="M299.127,197.196 L282.467,197.196 L282.467,206.161 L297.807,206.161 Q299.5,206.161 300.334,206.92 Q301.169,207.68 301.169,208.925 Q301.169,210.17 300.347,210.954 Q299.525,211.739 297.807,211.739 L282.467,211.739 L282.467,222.123 L299.699,222.123 Q301.442,222.123 302.327,222.932 Q303.211,223.742 303.211,225.086 Q303.211,226.381 302.327,227.191 Q301.442,228 299.699,228 L279.603,228 Q277.188,228 276.129,226.929 Q275.071,225.858 275.071,223.468 L275.071,196.025 Q275.071,194.432 275.544,193.423 Q276.017,192.415 277.026,191.954 Q278.034,191.493 279.603,191.493 L299.127,191.493 Q300.895,191.493 301.754,192.278 Q302.613,193.062 302.613,194.332 Q302.613,195.627 301.754,196.411 Q300.895,197.196 299.127,197.196 z" fill="#000000"/>
    <path d="M104.452,301.586 L101.354,289.273 L101.354,302.615 Q101.354,303.722 100.86,304.276 Q100.365,304.83 99.548,304.83 Q98.757,304.83 98.256,304.282 Q97.755,303.735 97.755,302.615 L97.755,287.322 Q97.755,286.056 98.414,285.615 Q99.073,285.173 100.194,285.173 L101.407,285.173 Q102.501,285.173 102.995,285.371 Q103.49,285.568 103.727,286.083 Q103.964,286.597 104.268,287.757 L107.076,298.343 L109.884,287.757 Q110.187,286.597 110.424,286.083 Q110.662,285.568 111.156,285.371 Q111.651,285.173 112.745,285.173 L113.958,285.173 Q115.078,285.173 115.737,285.615 Q116.397,286.056 116.397,287.322 L116.397,302.615 Q116.397,303.722 115.902,304.276 Q115.408,304.83 114.577,304.83 Q113.799,304.83 113.298,304.276 Q112.797,303.722 112.797,302.615 L112.797,289.273 L109.699,301.586 Q109.396,302.786 109.205,303.346 Q109.014,303.907 108.5,304.368 Q107.985,304.83 107.076,304.83 Q106.39,304.83 105.916,304.533 Q105.441,304.236 105.177,303.775 Q104.914,303.313 104.762,302.753 Q104.61,302.193 104.452,301.586 z" fill="#000000"/>
    <path d="M132.784,302.312 L131.861,299.886 L124.004,299.886 L123.081,302.364 Q122.54,303.814 122.158,304.322 Q121.776,304.83 120.905,304.83 Q120.167,304.83 119.6,304.289 Q119.033,303.749 119.033,303.063 Q119.033,302.667 119.165,302.246 Q119.297,301.824 119.6,301.072 L124.544,288.521 Q124.755,287.981 125.052,287.223 Q125.348,286.465 125.684,285.964 Q126.021,285.463 126.568,285.153 Q127.115,284.843 127.919,284.843 Q128.736,284.843 129.284,285.153 Q129.831,285.463 130.167,285.951 Q130.503,286.438 130.734,286.999 Q130.964,287.559 131.32,288.495 L136.37,300.967 Q136.963,302.391 136.963,303.037 Q136.963,303.709 136.403,304.269 Q135.842,304.83 135.051,304.83 Q134.59,304.83 134.26,304.665 Q133.931,304.5 133.707,304.217 Q133.483,303.933 133.225,303.346 Q132.968,302.76 132.784,302.312 z M125.032,296.946 L130.806,296.946 L127.893,288.97 z" fill="#000000"/>
    <path d="M143.779,287.216 L143.779,293.993 L151.465,285.977 Q152.019,285.397 152.408,285.12 Q152.796,284.843 153.442,284.843 Q154.286,284.843 154.807,285.338 Q155.328,285.832 155.328,286.544 Q155.328,287.401 154.444,288.245 L149.685,292.753 L155.17,300.611 Q155.75,301.428 156.04,302.041 Q156.33,302.654 156.33,303.234 Q156.33,303.88 155.822,304.355 Q155.315,304.83 154.444,304.83 Q153.627,304.83 153.113,304.48 Q152.599,304.131 152.243,303.551 Q151.887,302.971 151.61,302.496 L146.983,295.377 L143.779,298.449 L143.779,302.443 Q143.779,303.656 143.225,304.243 Q142.671,304.83 141.801,304.83 Q141.3,304.83 140.839,304.566 Q140.378,304.302 140.127,303.854 Q139.942,303.485 139.903,302.997 Q139.863,302.509 139.863,301.586 L139.863,287.216 Q139.863,286.03 140.384,285.437 Q140.905,284.843 141.801,284.843 Q142.685,284.843 143.232,285.43 Q143.779,286.017 143.779,287.216 z" fill="#000000"/>
    <path d="M172.559,288.192 L163.739,288.192 L163.739,292.938 L171.86,292.938 Q172.756,292.938 173.198,293.34 Q173.64,293.742 173.64,294.401 Q173.64,295.061 173.205,295.476 Q172.77,295.891 171.86,295.891 L163.739,295.891 L163.739,301.389 L172.862,301.389 Q173.785,301.389 174.253,301.817 Q174.721,302.246 174.721,302.958 Q174.721,303.643 174.253,304.072 Q173.785,304.5 172.862,304.5 L162.223,304.5 Q160.944,304.5 160.384,303.933 Q159.823,303.366 159.823,302.101 L159.823,287.572 Q159.823,286.729 160.074,286.195 Q160.324,285.661 160.858,285.417 Q161.392,285.173 162.223,285.173 L172.559,285.173 Q173.495,285.173 173.95,285.588 Q174.404,286.003 174.404,286.676 Q174.404,287.361 173.95,287.777 Q173.495,288.192 172.559,288.192 z" fill="#000000"/>
    <path d="M184.74,302.443 L184.74,287.216 Q184.74,286.03 185.281,285.437 Q185.821,284.843 186.678,284.843 Q187.562,284.843 188.109,285.43 Q188.656,286.017 188.656,287.216 L188.656,302.443 Q188.656,303.643 188.109,304.236 Q187.562,304.83 186.678,304.83 Q185.835,304.83 185.287,304.23 Q184.74,303.63 184.74,302.443 z" fill="#000000"/>
    <path d="M205.584,288.403 L201.312,288.403 L201.312,302.443 Q201.312,303.656 200.772,304.243 Q200.231,304.83 199.374,304.83 Q198.504,304.83 197.957,304.236 Q197.41,303.643 197.41,302.443 L197.41,288.403 L193.138,288.403 Q192.136,288.403 191.649,287.961 Q191.161,287.52 191.161,286.794 Q191.161,286.043 191.668,285.608 Q192.176,285.173 193.138,285.173 L205.584,285.173 Q206.599,285.173 207.093,285.621 Q207.588,286.069 207.588,286.794 Q207.588,287.52 207.087,287.961 Q206.586,288.403 205.584,288.403 z" fill="#000000"/>
    <path d="M221.918,296.234 L220.547,296.234 L220.547,302.443 Q220.547,303.669 220.006,304.25 Q219.466,304.83 218.596,304.83 Q217.66,304.83 217.146,304.223 Q216.631,303.617 216.631,302.443 L216.631,287.572 Q216.631,286.307 217.198,285.74 Q217.765,285.173 219.031,285.173 L225.399,285.173 Q226.717,285.173 227.653,285.285 Q228.589,285.397 229.34,285.74 Q230.25,286.122 230.949,286.834 Q231.648,287.546 232.01,288.489 Q232.373,289.431 232.373,290.486 Q232.373,292.648 231.153,293.94 Q229.934,295.232 227.455,295.772 Q228.497,296.326 229.446,297.407 Q230.395,298.488 231.14,299.708 Q231.885,300.927 232.3,301.909 Q232.715,302.892 232.715,303.261 Q232.715,303.643 232.472,304.019 Q232.228,304.395 231.806,304.612 Q231.384,304.83 230.83,304.83 Q230.171,304.83 229.723,304.52 Q229.275,304.21 228.952,303.735 Q228.629,303.261 228.075,302.338 L226.506,299.728 Q225.662,298.291 224.996,297.539 Q224.331,296.788 223.645,296.511 Q222.96,296.234 221.918,296.234 z M224.159,288.113 L220.547,288.113 L220.547,293.426 L224.054,293.426 Q225.464,293.426 226.427,293.182 Q227.389,292.938 227.897,292.351 Q228.404,291.765 228.404,290.736 Q228.404,289.932 227.996,289.319 Q227.587,288.706 226.862,288.403 Q226.176,288.113 224.159,288.113 z" fill="#000000"/>
    <path d="M236.235,302.443 L236.235,287.216 Q236.235,286.03 236.776,285.437 Q237.317,284.843 238.173,284.843 Q239.057,284.843 239.604,285.43 Q240.151,286.017 240.151,287.216 L240.151,302.443 Q240.151,303.643 239.604,304.236 Q239.057,304.83 238.173,304.83 Q237.33,304.83 236.783,304.23 Q236.235,303.63 236.235,302.443 z" fill="#000000"/>
    <path d="M262.181,296.643 L262.181,300.347 Q262.181,301.085 262.036,301.527 Q261.891,301.969 261.502,302.325 Q261.113,302.681 260.506,303.01 Q258.753,303.959 257.131,304.395 Q255.51,304.83 253.598,304.83 Q251.37,304.83 249.538,304.144 Q247.705,303.458 246.413,302.153 Q245.121,300.848 244.429,298.989 Q243.737,297.13 243.737,294.836 Q243.737,292.582 244.409,290.71 Q245.082,288.838 246.387,287.533 Q247.692,286.228 249.564,285.535 Q251.436,284.843 253.809,284.843 Q255.76,284.843 257.263,285.364 Q258.766,285.885 259.702,286.676 Q260.638,287.467 261.113,288.35 Q261.588,289.233 261.588,289.919 Q261.588,290.657 261.04,291.178 Q260.493,291.699 259.729,291.699 Q259.307,291.699 258.918,291.501 Q258.529,291.303 258.265,290.947 Q257.54,289.813 257.039,289.233 Q256.538,288.653 255.688,288.258 Q254.838,287.862 253.519,287.862 Q252.161,287.862 251.093,288.33 Q250.025,288.798 249.267,289.688 Q248.509,290.578 248.107,291.87 Q247.705,293.162 247.705,294.731 Q247.705,298.132 249.267,299.965 Q250.83,301.797 253.625,301.797 Q254.983,301.797 256.176,301.441 Q257.369,301.085 258.595,300.426 L258.595,297.289 L255.563,297.289 Q254.468,297.289 253.908,296.959 Q253.348,296.629 253.348,295.838 Q253.348,295.192 253.816,294.771 Q254.284,294.349 255.088,294.349 L259.531,294.349 Q260.348,294.349 260.915,294.494 Q261.482,294.639 261.831,295.14 Q262.181,295.641 262.181,296.643 z" fill="#000000"/>
    <path d="M269.854,287.216 L269.854,292.753 L278.304,292.753 L278.304,287.216 Q278.304,286.03 278.838,285.437 Q279.372,284.843 280.242,284.843 Q281.126,284.843 281.673,285.43 Q282.22,286.017 282.22,287.216 L282.22,302.443 Q282.22,303.643 281.666,304.236 Q281.112,304.83 280.242,304.83 Q279.359,304.83 278.832,304.23 Q278.304,303.63 278.304,302.443 L278.304,295.944 L269.854,295.944 L269.854,302.443 Q269.854,303.643 269.3,304.236 Q268.746,304.83 267.876,304.83 Q266.993,304.83 266.465,304.23 Q265.938,303.63 265.938,302.443 L265.938,287.216 Q265.938,286.03 266.459,285.437 Q266.98,284.843 267.876,284.843 Q268.759,284.843 269.307,285.43 Q269.854,286.017 269.854,287.216 z" fill="#000000"/>
    <path d="M298.976,288.403 L294.705,288.403 L294.705,302.443 Q294.705,303.656 294.164,304.243 Q293.624,304.83 292.767,304.83 Q291.897,304.83 291.349,304.236 Q290.802,303.643 290.802,302.443 L290.802,288.403 L286.531,288.403 Q285.529,288.403 285.041,287.961 Q284.553,287.52 284.553,286.794 Q284.553,286.043 285.061,285.608 Q285.568,285.173 286.531,285.173 L298.976,285.173 Q299.991,285.173 300.486,285.621 Q300.98,286.069 300.98,286.794 Q300.98,287.52 300.479,287.961 Q299.978,288.403 298.976,288.403 z" fill="#000000"/>
  </g>
</svg>
